<svg xmlns="http://www.w3.org/2000/svg" x="0px" y="0px"
width="30" height="30"
viewBox="0 0 172 172"
style=" fill:#000000;"><defs><radialGradient cx="86" cy="84.65625" r="84.00856" gradientUnits="userSpaceOnUse" id="color-1_119161_gr1"><stop offset="0" stop-color="#2ecc71"></stop><stop offset="0.193" stop-color="#1abc9c"></stop><stop offset="0.703" stop-color="#2ecc71"></stop><stop offset="1" stop-color="#2ecc71"></stop></radialGradient><linearGradient x1="86" y1="159.14031" x2="86" y2="35.51531" gradientUnits="userSpaceOnUse" id="color-2_119161_gr2"><stop offset="0" stop-color="#ff9757"></stop><stop offset="1" stop-color="#9b59b6"></stop><stop offset="1" stop-color="#9b59b6"></stop></linearGradient><linearGradient x1="124.96875" y1="58.88044" x2="124.96875" y2="23.94294" gradientUnits="userSpaceOnUse" id="color-3_119161_gr3"><stop offset="0" stop-color="#ff9757"></stop><stop offset="1" stop-color="#9b59b6"></stop><stop offset="1" stop-color="#9b59b6"></stop></linearGradient><linearGradient x1="106.15034" y1="174.3235" x2="106.15034" y2="88.50834" gradientUnits="userSpaceOnUse" id="color-4_119161_gr4"><stop offset="0" stop-color="#a4a4a4"></stop><stop offset="0.63" stop-color="#9b59b6"></stop><stop offset="1" stop-color="#9b59b6"></stop></linearGradient><linearGradient x1="59.12077" y1="148.68354" x2="59.12077" y2="90.22379" gradientUnits="userSpaceOnUse" id="color-5_119161_gr5"><stop offset="0" stop-color="#a4a4a4"></stop><stop offset="0.63" stop-color="#9b59b6"></stop><stop offset="1" stop-color="#9b59b6"></stop><stop offset="1" stop-color="#9b59b6"></stop></linearGradient><linearGradient x1="85.11313" y1="82.02787" x2="89.42656" y2="11.77663" gradientUnits="userSpaceOnUse" id="color-6_119161_gr6"><stop offset="0" stop-color="#ff634d"></stop><stop offset="0.204" stop-color="#e74c3c"></stop><stop offset="0.521" stop-color="#fc6581"></stop><stop offset="0.794" stop-color="#fa6694"></stop><stop offset="0.989" stop-color="#fa669a"></stop><stop offset="1" stop-color="#fa669a"></stop></linearGradient></defs><g fill="none" fill-rule="nonzero" stroke="none" stroke-width="1" stroke-linecap="butt" stroke-linejoin="miter" stroke-miterlimit="10" stroke-dasharray="" stroke-dashoffset="0" font-family="none" font-weight="none" font-size="none" text-anchor="none" style="mix-blend-mode: normal"><path d="M0,172v-172h172v172z" fill="none"></path><g><path d="M162.59375,115.5625h-27.83444c-3.51525,0 -6.71606,-2.52894 -7.06812,-6.02537c-0.40313,-4.02319 2.74394,-7.41213 6.68381,-7.41213h21.14794c3.89956,0 7.49544,-2.61225 8.25331,-6.43656c1.01856,-5.1385 -2.93475,-9.68844 -7.90125,-9.68844h-43v-18.8125h49.71875c5.19494,0 9.40625,-4.21131 9.40625,-9.40625v0c0,-5.19494 -4.21131,-9.40625 -9.40625,-9.40625h-3.74369c-2.67675,0 -5.16,-1.83019 -5.59,-4.472c-0.54556,-3.36744 2.03712,-6.278 5.30244,-6.278h0.95944c3.51525,0 6.71606,-2.52894 7.06813,-6.02538c0.40312,-4.02319 -2.74394,-7.41212 -6.68381,-7.41212h-45.6875c-2.22525,0 -4.03125,-1.806 -4.03125,-4.03125c0,-2.22525 1.806,-4.03125 4.03125,-4.03125h15.74069c3.51525,0 6.71606,-2.52894 7.06813,-6.02537c0.40312,-4.02319 -2.74394,-7.41212 -6.68381,-7.41212h-88.30319c-3.51525,0 -6.71606,2.52894 -7.06812,6.02538c-0.40313,4.02319 2.74394,7.41213 6.68381,7.41213h3.74369c2.67675,0 5.16,1.83019 5.59,4.472c0.54556,3.36744 -2.03712,6.278 -5.30244,6.278h-29.05456c-5.60612,0 -10.63712,4.06887 -11.2015,9.64813c-0.64769,6.40162 4.41825,11.85188 10.69356,11.85188h6.18662c5.09281,0 9.65887,3.81356 9.92494,8.901c0.28488,5.42337 -4.03125,9.9115 -9.39281,9.9115h-8.89831c-5.60612,0 -10.63712,4.06887 -11.2015,9.64812c-0.64769,6.40163 4.41825,11.85188 10.69356,11.85188h45.6875v29.5625h-42.64794c-3.89956,0 -7.49544,2.61225 -8.25331,6.43656c-1.01856,5.1385 2.93475,9.68844 7.90125,9.68844c3.26531,0 5.848,2.91056 5.30244,6.278c-0.43,2.64181 -2.91325,4.472 -5.59,4.472h-4.5795c-5.60612,0 -10.63712,4.06888 -11.2015,9.64813c-0.64769,6.40162 4.41825,11.85187 10.69356,11.85187h144.61706c5.39919,0 10.32269,-3.75713 11.13163,-9.09719c0.989,-6.54137 -4.02319,-12.23619 -10.34688,-12.40013c-2.17419,-0.05644 -4.3215,-1.06425 -5.16806,-3.06644c-1.6555,-3.92106 1.17713,-7.68625 4.89125,-7.68625h6.41237c4.48813,0 8.58656,-3.01538 9.50569,-7.40944c1.26044,-6.03344 -3.37281,-11.40306 -9.19931,-11.40306z" fill="url(#color-1_119161_gr1)"></path><path d="M145.125,59.125l-59.125,-32.25l-59.125,32.25v80.625c0,5.93669 4.81331,10.75 10.75,10.75h96.75c5.93669,0 10.75,-4.81331 10.75,-10.75z" fill="url(#color-2_119161_gr2)"></path><path d="M120.9375,21.5h8.0625c2.96969,0 5.375,2.40531 5.375,5.375v24.1875c0,2.96969 -2.40531,5.375 -5.375,5.375h-8.0625c-2.96969,0 -5.375,-2.40531 -5.375,-5.375v-24.1875c0,-2.96969 2.40531,-5.375 5.375,-5.375z" fill="url(#color-3_119161_gr3)"></path><path d="M123.625,150.5h-34.9375v-48.375c0,-2.96969 2.40531,-5.375 5.375,-5.375h24.1875c2.96969,0 5.375,2.40531 5.375,5.375z" fill="url(#color-4_119161_gr4)"></path><path d="M67.1875,123.625h-16.125c-2.96969,0 -5.375,-2.40531 -5.375,-5.375v-16.125c0,-2.96969 2.40531,-5.375 5.375,-5.375h16.125c2.96969,0 5.375,2.40531 5.375,5.375v16.125c0,2.96969 -2.40531,5.375 -5.375,5.375z" fill="url(#color-5_119161_gr5)"></path><g fill="url(#color-6_119161_gr6)"><path d="M76.90281,24.08806l-58.42625,34.65263c-3.12288,1.85438 -5.03906,5.21644 -5.03906,8.84725v0c0,8.02487 8.83113,12.98869 15.781,8.86606l56.77344,-33.67169l56.78956,33.67438c6.94987,4.11994 15.781,-0.84119 15.781,-8.86875v0c0,-3.63081 -1.91619,-6.99556 -5.03906,-8.84725l-58.44238,-34.65262c-5.60344,-3.32175 -12.57481,-3.32175 -18.17825,0z"></path></g></g></g></svg>