<svg xmlns="http://www.w3.org/2000/svg" x="0px" y="0px"
width="20" height="20"
viewBox="0 0 172 172"
style=" fill:#000000;"><defs><radialGradient cx="87.34375" cy="87.34375" r="81.96875" gradientUnits="userSpaceOnUse" id="color-1_119031_gr1"><stop offset="0" stop-color="#b8efff"></stop><stop offset="0.642" stop-color="#d4f6ff"></stop><stop offset="1" stop-color="#e5faff"></stop></radialGradient><linearGradient x1="86" y1="150.5" x2="86" y2="34.9375" gradientUnits="userSpaceOnUse" id="color-2_119031_gr2"><stop offset="0" stop-color="#ff634d"></stop><stop offset="0.204" stop-color="#fe6464"></stop><stop offset="0.521" stop-color="#fc6581"></stop><stop offset="0.794" stop-color="#fa6694"></stop><stop offset="0.989" stop-color="#fa669a"></stop><stop offset="1" stop-color="#fa669a"></stop></linearGradient><linearGradient x1="52.40625" y1="131.6875" x2="52.40625" y2="26.875" gradientUnits="userSpaceOnUse" id="color-3_119031_gr3"><stop offset="0" stop-color="#ffd17a"></stop><stop offset="1" stop-color="#ffcfa4"></stop></linearGradient><linearGradient x1="119.59375" y1="131.6875" x2="119.59375" y2="26.875" gradientUnits="userSpaceOnUse" id="color-4_119031_gr4"><stop offset="0" stop-color="#ffd685"></stop><stop offset="1" stop-color="#ffd4ad"></stop></linearGradient><linearGradient x1="41.65625" y1="83.3125" x2="41.65625" y2="26.875" gradientUnits="userSpaceOnUse" id="color-5_119031_gr5"><stop offset="0" stop-color="#ffd79f"></stop><stop offset="1" stop-color="#ffd5af"></stop></linearGradient><linearGradient x1="106.15625" y1="75.25" x2="106.15625" y2="26.875" gradientUnits="userSpaceOnUse" id="color-6_119031_gr6"><stop offset="0" stop-color="#ffdab9"></stop><stop offset="1" stop-color="#ffdab9"></stop></linearGradient><linearGradient x1="120.9375" y1="99.4375" x2="120.9375" y2="21.5" gradientUnits="userSpaceOnUse" id="color-7_119031_gr7"><stop offset="0" stop-color="#ff634d"></stop><stop offset="0.204" stop-color="#fe6464"></stop><stop offset="0.521" stop-color="#fc6581"></stop><stop offset="0.794" stop-color="#fa6694"></stop><stop offset="0.989" stop-color="#fa669a"></stop><stop offset="1" stop-color="#fa669a"></stop></linearGradient></defs><g fill="none" fill-rule="nonzero" stroke="none" stroke-width="1" stroke-linecap="butt" stroke-linejoin="miter" stroke-miterlimit="10" stroke-dasharray="" stroke-dashoffset="0" font-family="none" font-weight="none" font-size="none" text-anchor="none" style="mix-blend-mode: normal"><path d="M0,172v-172h172v172z" fill="none"></path><g><path d="M162.20944,126.3125h-9.02194c-2.96969,0 -5.375,-2.40531 -5.375,-5.375c0,-2.96969 2.40531,-5.375 5.375,-5.375h1.10725c3.06106,0 5.91788,-1.93769 6.71069,-4.89394c1.19862,-4.46931 -2.18494,-8.54356 -6.47419,-8.54356h-41.65625v-29.5625h37.625c6.27531,0 11.34125,-5.45025 10.69356,-11.85187c-0.56437,-5.57656 -5.59537,-9.64812 -11.2015,-9.64812h-26.36706c-2.96969,0 -5.375,-2.40531 -5.375,-5.375c0,-2.96969 2.40531,-5.375 5.375,-5.375h17.08444c3.51525,0 6.71606,-2.52894 7.06813,-6.02538c0.40312,-4.02319 -2.74394,-7.41212 -6.68381,-7.41212h-21.5c-2.22525,0 -4.03125,-1.806 -4.03125,-4.03125c0,-2.22525 1.806,-4.03125 4.03125,-4.03125h10.36569c3.51525,0 6.71606,-2.52894 7.06813,-6.02537c0.40312,-4.02319 -2.74394,-7.41212 -6.68381,-7.41212h-88.30319c-3.51525,0 -6.71606,2.52894 -7.06812,6.02538c-0.40313,4.02319 2.74394,7.41213 6.68381,7.41213h9.40625c2.96969,0 5.375,2.40531 5.375,5.375c0,2.96969 -2.40531,5.375 -5.375,5.375h-34.42956c-5.60612,0 -10.63712,4.06887 -11.2015,9.64813c-0.64769,6.40163 4.41825,11.85188 10.69356,11.85188h6.71875c5.19494,0 9.40625,4.21131 9.40625,9.40625c0,5.19494 -4.21131,9.40625 -9.40625,9.40625h-4.03125c-5.60612,0 -10.63712,4.06887 -11.2015,9.64812c-0.64769,6.40163 4.41825,11.85188 10.69356,11.85188h40.82044v32.25h-38.73225c-3.06106,0 -5.91787,1.93769 -6.71069,4.89394c-1.19863,4.46931 2.18494,8.54356 6.47419,8.54356h4.03125c2.96969,0 5.375,2.40531 5.375,5.375c0,2.96969 -2.40531,5.375 -5.375,5.375h-7.55456c-5.60612,0 -10.63712,4.06888 -11.2015,9.64813c-0.64769,6.40162 4.41825,11.85187 10.69356,11.85187h131.17956c5.60612,0 10.63712,-4.06888 11.2015,-9.64813c0.64769,-6.40162 -4.41825,-11.85187 -10.69356,-11.85187h-1.34375c-2.22525,0 -4.03125,-1.806 -4.03125,-4.03125c0,-2.22525 1.806,-4.03125 4.03125,-4.03125h16.125c3.93988,0 7.08694,-3.38894 6.68381,-7.41213c-0.34938,-3.49644 -3.55288,-6.02537 -7.06813,-6.02537z" fill="url(#color-1_119031_gr1)"></path><path d="M147.8125,34.9375h-51.0625v16.125h-21.5v-16.125h-51.0625c-8.90638,0 -16.125,7.21863 -16.125,16.125v75.25c0,8.90637 7.21862,16.125 16.125,16.125h51.44144c1.19863,4.62788 5.36694,8.0625 10.37106,8.0625c5.00413,0 9.16975,-3.43462 10.37106,-8.0625h51.44144c8.90637,0 16.125,-7.21863 16.125,-16.125v-75.25c0,-8.90637 -7.21863,-16.125 -16.125,-16.125z" fill="url(#color-2_119031_gr2)"></path><path d="M77.9375,131.6875h-51.0625c-4.45319,0 -8.0625,-3.60931 -8.0625,-8.0625v-88.6875c0,-4.45319 3.60931,-8.0625 8.0625,-8.0625h43c8.90637,0 16.125,7.21863 16.125,16.125v80.625c0,4.45319 -3.60931,8.0625 -8.0625,8.0625z" fill="url(#color-3_119031_gr3)"></path><path d="M94.0625,131.6875h51.0625c4.45319,0 8.0625,-3.60931 8.0625,-8.0625v-88.6875c0,-4.45319 -3.60931,-8.0625 -8.0625,-8.0625h-43c-8.90637,0 -16.125,7.21863 -16.125,16.125v80.625c0,4.45319 3.60931,8.0625 8.0625,8.0625z" fill="url(#color-4_119031_gr4)"></path><path d="M18.8125,34.9375c0,-4.45319 3.60931,-8.0625 8.0625,-8.0625h32.25c3.26531,0 5.848,2.91056 5.30244,6.278c-0.43,2.64181 -2.91325,4.472 -5.59,4.472h-19.86869c-2.22525,0 -4.03125,1.806 -4.03125,4.03125c0,2.22525 1.806,4.03125 4.03125,4.03125h4.03125c3.26531,0 5.848,2.91056 5.30244,6.278c-0.43,2.64181 -2.91325,4.472 -5.59,4.472h-23.89994zM43,72.5625c-2.96969,0 -5.375,2.40531 -5.375,5.375c0,2.96969 2.40531,5.375 5.375,5.375c2.96969,0 5.375,-2.40531 5.375,-5.375c0,-2.96969 -2.40531,-5.375 -5.375,-5.375z" fill="url(#color-5_119031_gr5)"></path><path d="M126.23994,50.1595c-0.43,-2.64181 -2.91325,-4.472 -5.59,-4.472h-12.86238h-4.31881c-2.22525,0 -4.03125,-1.806 -4.03125,-4.03125c0,-2.22525 1.806,-4.03125 4.03125,-4.03125h6.71875c3.26531,0 5.848,-2.91056 5.30244,-6.278c-0.43,-2.64181 -2.91325,-4.472 -5.59,-4.472h-7.77494c-8.90637,0 -16.125,7.21863 -16.125,16.125v2.6875v2.6875v5.375v2.6875v18.8125h13.14994c2.67675,0 5.16,-1.83019 5.59,-4.472c0.54556,-3.36744 -2.03712,-6.278 -5.30244,-6.278h-1.63131c-2.22525,0 -4.03125,-1.806 -4.03125,-4.03125c0,-2.22525 1.806,-4.03125 4.03125,-4.03125h9.69381h13.4375c3.26531,0 5.848,-2.91056 5.30244,-6.278z" fill="url(#color-6_119031_gr6)"></path><path d="M130.58563,99.4375h-0.01613c-1.00512,0 -1.96994,-0.40044 -2.67944,-1.10994l-6.95256,-6.95256l-6.95256,6.95256c-0.7095,0.7095 -1.67431,1.10994 -2.67944,1.10994h-0.01613c-2.09356,0 -3.78937,-1.69581 -3.78937,-3.78937v-66.08563c0,-4.45319 3.60931,-8.0625 8.0625,-8.0625h10.75c4.45319,0 8.0625,3.60931 8.0625,8.0625v66.08563c0,2.09356 -1.69581,3.78937 -3.78937,3.78937z" fill="url(#color-7_119031_gr7)"></path></g></g></svg>