<svg xmlns="http://www.w3.org/2000/svg" x="0px" y="0px"
width="30" height="30"
viewBox="0 0 172 172"
style=" fill:#000000;"><defs><radialGradient cx="86" cy="91.375" r="88.69288" gradientUnits="userSpaceOnUse" id="color-1_119710_gr1"><stop offset="0" stop-color="#afeeff"></stop><stop offset="0.193" stop-color="#bbf1ff"></stop><stop offset="0.703" stop-color="#d7f8ff"></stop><stop offset="1" stop-color="#e1faff"></stop></radialGradient><linearGradient x1="86" y1="161.02694" x2="86" y2="29.33944" gradientUnits="userSpaceOnUse" id="color-2_119710_gr2"><stop offset="0" stop-color="#ff8b67"></stop><stop offset="0.847" stop-color="#ffa76a"></stop><stop offset="1" stop-color="#ffad6b"></stop><stop offset="1" stop-color="#ffad6b"></stop></linearGradient><linearGradient x1="86" y1="35.79481" x2="86" y2="155.60356" gradientUnits="userSpaceOnUse" id="color-3_119710_gr3"><stop offset="0" stop-color="#ffcfa2"></stop><stop offset="1" stop-color="#ffd17c"></stop></linearGradient><linearGradient x1="86" y1="40.3125" x2="86" y2="145.125" gradientUnits="userSpaceOnUse" id="color-4_119710_gr4"><stop offset="0" stop-color="#fff1e3"></stop><stop offset="1" stop-color="#fff1d8"></stop></linearGradient><linearGradient x1="86" y1="8.88488" x2="86" y2="65.231" gradientUnits="userSpaceOnUse" id="color-5_119710_gr5"><stop offset="0" stop-color="#adadad"></stop><stop offset="0.412" stop-color="#969696"></stop><stop offset="1" stop-color="#6f6f6f"></stop></linearGradient><linearGradient x1="68.53125" y1="124.81825" x2="68.53125" y2="56.67669" gradientUnits="userSpaceOnUse" id="color-6_119710_gr6"><stop offset="0" stop-color="#f29265"></stop><stop offset="1" stop-color="#f9ae7f"></stop></linearGradient><linearGradient x1="104.8125" y1="64.5" x2="104.8125" y2="88.68481" gradientUnits="userSpaceOnUse" id="color-7_119710_gr7"><stop offset="0" stop-color="#40d277"></stop><stop offset="0.704" stop-color="#38bc73"></stop><stop offset="1" stop-color="#34b171"></stop></linearGradient><linearGradient x1="104.8125" y1="102.12769" x2="104.8125" y2="126.31519" gradientUnits="userSpaceOnUse" id="color-8_119710_gr8"><stop offset="0" stop-color="#40d277"></stop><stop offset="0.704" stop-color="#38bc73"></stop><stop offset="1" stop-color="#34b171"></stop></linearGradient></defs><g fill="none" fill-rule="nonzero" stroke="none" stroke-width="1" stroke-linecap="butt" stroke-linejoin="miter" stroke-miterlimit="10" stroke-dasharray="" stroke-dashoffset="0" font-family="none" font-weight="none" font-size="none" text-anchor="none" style="mix-blend-mode: normal"><path d="M0,172v-172h172v172z" fill="none"></path><g><path d="M155.875,115.5625h6.18662c4.65744,0 8.99775,-3.13362 9.79325,-7.72119c1.02931,-5.93669 -3.51525,-11.09131 -9.26112,-11.09131h-11.82769c-2.64181,0 -5.09281,-1.78987 -5.55506,-4.39137c-0.58856,-3.32175 1.87588,-6.21619 5.0525,-6.35325c0.01612,0 5.6115,-0.00538 5.6115,-0.00538c4.45319,0 8.0625,-3.60931 8.0625,-8.0625v0c0,-4.45319 -3.60931,-8.0625 -8.0625,-8.0625h-3.49912c-4.65744,0 -8.99775,-3.13362 -9.79325,-7.72119c-1.02931,-5.93669 3.51525,-11.09131 9.26112,-11.09131h4.84287c4.65744,0 8.99775,-3.13363 9.79325,-7.72119c1.02931,-5.93669 -3.51525,-11.09131 -9.26112,-11.09131h-28.21875h-16.125l-26.875,10.75l-37.625,-10.75v10.75h-35.74912c-4.65744,0 -8.99775,3.13363 -9.79325,7.72119c-1.02931,5.93669 3.51525,11.09131 9.26113,11.09131h4.84287c5.09281,0 9.65887,3.81356 9.92494,8.901c0.28488,5.42337 -4.03125,9.9115 -9.39281,9.9115h-2.30319c-3.51525,0 -6.71606,2.52894 -7.06812,6.02537c-0.40313,4.0205 2.74394,7.41213 6.68381,7.41213v0c2.63644,0 5.15731,1.4835 6.15438,3.92375c1.98337,4.86706 -1.54263,9.51375 -6.15438,9.51375h-6.26187c-4.36719,0 -8.28019,3.268 -8.50862,7.62981c-0.24187,4.64938 3.45613,8.49519 8.05175,8.49519h13.14994c2.67675,0 5.16,1.83019 5.59,4.472c0.54556,3.36744 -2.03712,6.278 -5.30244,6.278h-2.23062c-4.36719,0 -8.28019,3.268 -8.50863,7.62981c-0.24187,4.64938 3.45613,8.49519 8.05175,8.49519h29.5625h21.5h59.125v-2.6875h26.47725c4.25163,0 8.07056,-3.12287 8.43069,-7.35837c0.40581,-4.78106 -3.36475,-8.78813 -8.06787,-8.76663c-2.76275,0.01075 -5.46369,-1.16637 -6.80475,-3.57975c-3.46419,-6.22963 0.94869,-12.54525 6.83969,-12.54525z" fill="url(#color-1_119710_gr1)"></path><path d="M126.3125,26.875h-29.5625c0,5.93669 -4.81331,10.75 -10.75,10.75c-5.93669,0 -10.75,-4.81331 -10.75,-10.75h-29.5625c-7.39062,0 -13.4375,6.04688 -13.4375,13.4375v104.8125c0,7.39063 6.04688,13.4375 13.4375,13.4375h80.625c7.39063,0 13.4375,-6.04687 13.4375,-13.4375v-104.8125c0,-7.39062 -6.04687,-13.4375 -13.4375,-13.4375z" fill="url(#color-2_119710_gr2)"></path><path d="M120.9375,145.125h-69.875c-2.96969,0 -5.375,-2.40531 -5.375,-5.375v-94.0625c0,-2.96969 2.40531,-5.375 5.375,-5.375h69.875c2.96969,0 5.375,2.40531 5.375,5.375v94.0625c0,2.96969 -2.40531,5.375 -5.375,5.375z" fill="url(#color-3_119710_gr3)"></path><path d="M120.9375,145.125h-69.875c-2.96969,0 -5.375,-2.40531 -5.375,-5.375v-94.0625c0,-2.96969 2.40531,-5.375 5.375,-5.375h69.875c2.96969,0 5.375,2.40531 5.375,5.375v94.0625c0,2.96969 -2.40531,5.375 -5.375,5.375z" fill="url(#color-4_119710_gr4)"></path><path d="M104.8125,26.875c0,-10.38987 -8.42262,-18.8125 -18.8125,-18.8125c-10.38988,0 -18.8125,8.42263 -18.8125,18.8125h-10.75v16.125c0,4.45319 3.60931,8.0625 8.0625,8.0625h43c4.45319,0 8.0625,-3.60931 8.0625,-8.0625v-16.125zM86,34.9375c-4.45319,0 -8.0625,-3.60931 -8.0625,-8.0625c0,-4.45319 3.60931,-8.0625 8.0625,-8.0625c4.45319,0 8.0625,3.60931 8.0625,8.0625c0,4.45319 -3.60931,8.0625 -8.0625,8.0625z" fill="url(#color-5_119710_gr5)"></path><path d="M83.3125,77.9375v0c0,2.96969 -2.40531,5.375 -5.375,5.375h-18.8125c-2.96969,0 -5.375,-2.40531 -5.375,-5.375v0c0,-2.96969 2.40531,-5.375 5.375,-5.375h18.8125c2.96969,0 5.375,2.40531 5.375,5.375zM83.3125,115.5625v0c0,2.96969 -2.40531,5.375 -5.375,5.375h-18.8125c-2.96969,0 -5.375,-2.40531 -5.375,-5.375v0c0,-2.96969 2.40531,-5.375 5.375,-5.375h18.8125c2.96969,0 5.375,2.40531 5.375,5.375z" fill="url(#color-6_119710_gr6)"></path><path d="M120.9375,69.86963c0,1.37063 -0.5375,2.74125 -1.55875,3.78938l-9.64813,9.64812l-3.8055,3.8055c-2.09894,2.09894 -5.50131,2.09894 -7.60025,0l-8.07863,-8.07863c-1.02125,-1.04812 -1.55875,-2.41875 -1.55875,-3.78938c0,-1.3975 0.5375,-2.76812 1.55875,-3.81625c2.09625,-2.06937 5.50937,-2.06937 7.60563,0l4.27313,4.27313l9.64813,-9.64813c2.09625,-2.06937 5.50937,-2.06937 7.60563,0c1.02125,1.04544 1.55875,2.41606 1.55875,3.81625z" fill="url(#color-7_119710_gr7)"></path><path d="M120.9375,107.49731c0,1.37062 -0.5375,2.74125 -1.55875,3.78937l-9.64813,9.64812l-3.8055,3.8055c-2.09894,2.09894 -5.50131,2.09894 -7.60025,0l-8.07863,-8.07863c-1.02125,-1.04812 -1.55875,-2.41875 -1.55875,-3.78937c0,-1.3975 0.5375,-2.76813 1.55875,-3.81625c2.09625,-2.06938 5.50937,-2.06938 7.60563,0l4.27313,4.27313l9.64813,-9.64813c2.09625,-2.06938 5.50937,-2.06938 7.60563,0c1.02125,1.04813 1.55875,2.41875 1.55875,3.81625z" fill="url(#color-8_119710_gr8)"></path></g></g></svg>