<svg xmlns="http://www.w3.org/2000/svg" x="0px" y="0px"
width="96" height="96"
viewBox="0 0 172 172"
style=" fill:#000000;"><g fill="none" fill-rule="nonzero" stroke="none" stroke-width="1" stroke-linecap="butt" stroke-linejoin="miter" stroke-miterlimit="10" stroke-dasharray="" stroke-dashoffset="0" font-family="none" font-weight="none" font-size="none" text-anchor="none" style="mix-blend-mode: normal"><path d="M0,172v-172h172v172z" fill="none"></path><g><path d="M14.33333,28.66667h143.33333v114.66667h-143.33333z" fill="#ecf0f1"></path><path d="M14.33333,28.66667v21.5c11.825,0 21.5,-9.675 21.5,-21.5zM157.66667,28.66667h-21.5c0,11.825 9.675,21.5 21.5,21.5zM157.66667,143.33333v-21.5c-11.825,0 -21.5,9.675 -21.5,21.5zM14.33333,143.33333h21.5c0,-11.825 -9.675,-21.5 -21.5,-21.5z" fill="#9b59b6"></path><path d="M161.25,146.91667h-150.5v-121.83333h150.5zM17.91667,139.75h136.16667v-107.5h-136.16667z" fill="#9b59b6"></path><path d="M43,107.5h86v7.16667h-86zM60.91667,121.83333h50.16667v7.16667h-50.16667z" fill="#9b59b6"></path><path d="M39.41667,60.91667h21.5v17.91667h-21.5zM114.66667,60.91667h21.5v17.91667h-21.5z" fill="#9b59b6"></path><path d="M98.9,77.4c0,9.31667 -8.95833,10.39167 -10.75,10.39167v5.375h-3.94167v-5.375c-1.43333,0 -11.46667,-1.075 -11.46667,-12.54167h7.525c0,1.075 0,6.45 5.73333,6.45c5.01667,0 5.01667,-3.94167 5.01667,-4.65833c0,-8.24167 -17.2,-5.01667 -17.2,-18.275c0,-7.88333 7.16667,-10.39167 10.75,-10.39167v-5.375h4.3v5.73333c2.50833,0.35833 10.03333,2.15 10.03333,12.18333h-7.525c0,-2.15 -0.35833,-6.45 -5.01667,-6.45c-4.3,0.35833 -4.3,4.3 -4.3,5.01667c0,7.525 16.84167,4.65833 16.84167,17.91667" fill="#9b59b6"></path></g></g></svg>