<?xml version="1.0" encoding="UTF-8"?>
<svg xmlns="http://www.w3.org/2000/svg" xmlns:xlink="http://www.w3.org/1999/xlink" width="40pt" height="40pt" viewBox="0 0 50 50" version="1.1">
<g id="surface1">
<path style=" stroke:none;fill-rule:nonzero;fill:rgb(23.529412%,36.470588%,47.058824%);fill-opacity:1;" d="M 50 25 C 50 38.808594 38.808594 50 25 50 C 11.191406 50 0 38.808594 0 25 C 0 11.191406 11.191406 0 25 0 C 38.808594 0 50 11.191406 50 25 Z M 50 25 "/>
<path style=" stroke:none;fill-rule:nonzero;fill:rgb(21.960784%,30.588235%,39.215686%);fill-opacity:1;" d="M 26.855469 7.8125 L 6.847656 7.8125 C 7.859375 6.742188 8.96875 5.761719 10.15625 4.882812 L 26.855469 4.882812 C 27.664062 4.882812 28.320312 5.539062 28.320312 6.347656 C 28.320312 7.15625 27.664062 7.8125 26.855469 7.8125 Z M 32.226562 45.410156 C 32.226562 46.21875 32.882812 46.875 33.691406 46.875 L 37.109375 46.875 C 38.609375 46.042969 40.019531 45.058594 41.3125 43.945312 L 33.691406 43.945312 C 32.882812 43.945312 32.226562 44.601562 32.226562 45.410156 Z M 45.898438 17.089844 C 45.898438 16.28125 45.242188 15.625 44.433594 15.625 L 40.039062 15.625 C 39.230469 15.625 38.574219 14.96875 38.574219 14.160156 C 38.574219 13.351562 39.230469 12.695312 40.039062 12.695312 L 46.765625 12.695312 C 46.1875 11.671875 45.535156 10.691406 44.820312 9.765625 L 24.902344 9.765625 C 24.09375 9.765625 23.4375 10.421875 23.4375 11.230469 C 23.4375 12.039062 24.09375 12.695312 24.902344 12.695312 L 32.226562 12.695312 C 33.035156 12.695312 33.691406 13.351562 33.691406 14.160156 C 33.691406 14.96875 33.035156 15.625 32.226562 15.625 L 20.019531 15.625 C 19.210938 15.625 18.554688 16.28125 18.554688 17.089844 C 18.554688 17.898438 19.210938 18.554688 20.019531 18.554688 L 44.433594 18.554688 C 45.242188 18.554688 45.898438 17.898438 45.898438 17.089844 Z M 49.992188 24.414062 L 27.875 24.414062 C 27.085938 24.414062 26.40625 25.019531 26.367188 25.808594 C 26.328125 26.648438 27 27.34375 27.832031 27.34375 L 39.550781 27.34375 C 40.359375 27.34375 41.015625 28 41.015625 28.808594 C 41.015625 29.617188 41.671875 30.273438 42.480469 30.273438 L 49.441406 30.273438 C 49.804688 28.574219 50 26.808594 50 25 C 50 24.804688 49.996094 24.609375 49.992188 24.414062 Z M 49.992188 24.414062 "/>
<path style=" stroke:none;fill-rule:nonzero;fill:rgb(25.098039%,44.313725%,54.901961%);fill-opacity:1;" d="M 27.6875 2.6875 L 28.3125 3.835938 C 28.332031 3.867188 28.359375 3.894531 28.390625 3.914062 L 29.539062 4.539062 C 29.671875 4.613281 29.671875 4.808594 29.539062 4.882812 L 28.390625 5.511719 C 28.359375 5.527344 28.332031 5.554688 28.3125 5.585938 L 27.6875 6.734375 C 27.613281 6.871094 27.417969 6.871094 27.34375 6.734375 L 26.714844 5.585938 C 26.699219 5.554688 26.671875 5.527344 26.640625 5.511719 L 25.492188 4.882812 C 25.355469 4.808594 25.355469 4.613281 25.492188 4.539062 L 26.640625 3.914062 C 26.671875 3.894531 26.699219 3.867188 26.714844 3.835938 L 27.34375 2.6875 C 27.417969 2.554688 27.613281 2.554688 27.6875 2.6875 Z M 27.6875 2.6875 "/>
<path style=" stroke:none;fill-rule:nonzero;fill:rgb(100%,95.686275%,64.705882%);fill-opacity:1;" d="M 27.445312 18.554688 L 28.59375 17.925781 C 28.625 17.910156 28.652344 17.882812 28.667969 17.851562 L 29.296875 16.703125 C 29.371094 16.566406 29.566406 16.566406 29.640625 16.703125 L 30.265625 17.851562 C 30.285156 17.882812 30.3125 17.910156 30.34375 17.925781 L 31.492188 18.554688 C 31.625 18.628906 31.625 18.824219 31.492188 18.898438 L 30.34375 19.523438 C 30.3125 19.542969 30.285156 19.570312 30.265625 19.601562 L 29.640625 20.75 C 29.566406 20.882812 29.371094 20.882812 29.296875 20.75 L 28.667969 19.601562 C 28.652344 19.570312 28.625 19.542969 28.59375 19.523438 L 27.445312 18.898438 C 27.308594 18.824219 27.308594 18.628906 27.445312 18.554688 Z M 19.6875 6.835938 C 12.050781 9.035156 6.464844 16.074219 6.464844 24.417969 C 6.464844 34.523438 14.65625 42.714844 24.761719 42.714844 C 31.261719 42.714844 36.96875 39.324219 40.210938 34.21875 C 28.519531 30.5 19.992188 19.6875 19.6875 6.835938 Z M 19.6875 6.835938 "/>
<path style=" stroke:none;fill-rule:nonzero;fill:rgb(100%,89.411765%,45.098039%);fill-opacity:1;" d="M 13.671875 26.855469 C 13.671875 25.507812 14.765625 24.414062 16.113281 24.414062 C 17.460938 24.414062 18.554688 25.507812 18.554688 26.855469 C 18.554688 28.203125 17.460938 29.296875 16.113281 29.296875 C 14.765625 29.296875 13.671875 28.203125 13.671875 26.855469 Z M 23.4375 31.25 C 24.515625 31.25 25.390625 30.375 25.390625 29.296875 C 25.390625 28.21875 24.515625 27.34375 23.4375 27.34375 C 22.359375 27.34375 21.484375 28.21875 21.484375 29.296875 C 21.484375 30.375 22.359375 31.25 23.4375 31.25 Z M 15.625 18.554688 C 16.703125 18.554688 17.578125 17.679688 17.578125 16.601562 C 17.578125 15.523438 16.703125 14.648438 15.625 14.648438 C 14.546875 14.648438 13.671875 15.523438 13.671875 16.601562 C 13.671875 17.679688 14.546875 18.554688 15.625 18.554688 Z M 43.84375 12.695312 L 42.695312 12.066406 C 42.664062 12.050781 42.636719 12.023438 42.621094 11.992188 L 41.992188 10.84375 C 41.917969 10.707031 41.722656 10.707031 41.648438 10.84375 L 41.023438 11.992188 C 41.003906 12.023438 40.976562 12.050781 40.945312 12.066406 L 39.796875 12.695312 C 39.664062 12.769531 39.664062 12.964844 39.796875 13.039062 L 40.945312 13.664062 C 40.976562 13.683594 41.003906 13.710938 41.023438 13.742188 L 41.648438 14.890625 C 41.722656 15.023438 41.917969 15.023438 41.992188 14.890625 L 42.621094 13.742188 C 42.636719 13.710938 42.664062 13.683594 42.695312 13.664062 L 43.84375 13.039062 C 43.980469 12.964844 43.980469 12.769531 43.84375 12.695312 Z M 35.15625 37.109375 C 35.15625 35.492188 33.84375 34.179688 32.226562 34.179688 C 30.609375 34.179688 29.296875 35.492188 29.296875 37.109375 C 29.296875 38.324219 30.039062 39.367188 31.09375 39.8125 C 29.855469 40.074219 28.574219 40.214844 27.261719 40.214844 C 17.15625 40.214844 8.964844 32.023438 8.964844 21.917969 C 8.964844 17.503906 10.527344 13.453125 13.132812 10.292969 C 9.058594 13.648438 6.464844 18.730469 6.464844 24.417969 C 6.464844 34.523438 14.65625 42.714844 24.761719 42.714844 C 30.453125 42.714844 35.535156 40.117188 38.890625 36.039062 C 37.636719 37.074219 36.238281 37.945312 34.738281 38.621094 C 35.003906 38.179688 35.15625 37.660156 35.15625 37.109375 Z M 35.15625 37.109375 "/>
<path style=" stroke:none;fill-rule:nonzero;fill:rgb(39.607843%,60%,66.666667%);fill-opacity:1;" d="M 42.09375 25.046875 L 43.242188 24.421875 C 43.273438 24.402344 43.300781 24.375 43.316406 24.34375 L 43.945312 23.195312 C 44.019531 23.0625 44.214844 23.0625 44.289062 23.195312 L 44.914062 24.34375 C 44.933594 24.375 44.960938 24.402344 44.992188 24.421875 L 46.140625 25.046875 C 46.273438 25.121094 46.273438 25.316406 46.140625 25.390625 L 44.992188 26.019531 C 44.960938 26.035156 44.933594 26.0625 44.914062 26.09375 L 44.289062 27.242188 C 44.214844 27.378906 44.019531 27.378906 43.945312 27.242188 L 43.316406 26.09375 C 43.300781 26.0625 43.273438 26.035156 43.242188 26.019531 L 42.09375 25.390625 C 41.957031 25.316406 41.957031 25.121094 42.09375 25.046875 Z M 45.898438 36.132812 L 5.859375 36.132812 C 5.050781 36.132812 4.394531 35.476562 4.394531 34.667969 C 4.394531 33.859375 5.050781 33.203125 5.859375 33.203125 L 20.996094 33.203125 C 21.804688 33.203125 22.460938 32.546875 22.460938 31.738281 C 22.460938 30.929688 21.804688 30.273438 20.996094 30.273438 L 0.558594 30.273438 C 1.246094 33.472656 2.546875 36.445312 4.328125 39.0625 L 12.695312 39.0625 C 13.503906 39.0625 14.160156 39.71875 14.160156 40.527344 C 14.160156 41.335938 13.503906 41.992188 12.695312 41.992188 L 6.664062 41.992188 C 7.65625 43.058594 8.734375 44.039062 9.898438 44.921875 L 24.902344 44.921875 C 25.710938 44.921875 26.367188 44.265625 26.367188 43.457031 C 26.367188 42.648438 25.710938 41.992188 24.902344 41.992188 L 20.507812 41.992188 C 19.699219 41.992188 19.042969 41.335938 19.042969 40.527344 C 19.042969 39.71875 19.699219 39.0625 20.507812 39.0625 L 45.898438 39.0625 C 46.707031 39.0625 47.363281 38.40625 47.363281 37.597656 C 47.363281 36.789062 46.707031 36.132812 45.898438 36.132812 Z M 45.898438 36.132812 "/>
</g>
</svg>
