<svg xmlns="http://www.w3.org/2000/svg" x="0px" y="0px"
width="40" height="40"
viewBox="0 0 172 172"
style=" fill:#000000;"><g fill="none" fill-rule="nonzero" stroke="none" stroke-width="1" stroke-linecap="butt" stroke-linejoin="miter" stroke-miterlimit="10" stroke-dasharray="" stroke-dashoffset="0" font-family="none" font-weight="none" font-size="none" text-anchor="none" style="mix-blend-mode: normal"><path d="M0,172v-172h172v172z" fill="none"></path><g><path d="M152.60528,95.54772c0.516,-1.05952 0.97352,-2.17408 1.36912,-3.34196c4.52876,-13.3644 -2.32028,-29.37416 -16.74076,-33.239c-1.55832,-19.57876 -15.31832,-33.01196 -30.85852,-35.303c-17.78652,-2.623 -34.08008,8.67568 -39.50152,26.6342c-6.53428,-2.31512 -12.90172,-2.03304 -18.9028,1.47404c-2.72276,1.25904 -5.21332,3.11664 -7.4476,5.56076c-3.28004,3.58792 -5.41284,8.11668 -6.28144,12.8914c-1.28656,0.20296 -2.55076,0.40592 -3.74272,0.83248c-6.9488,2.49228 -11.33308,7.62132 -12.53536,15.34756c-0.7482,4.81084 0.76196,9.60964 1.60476,11.54808c3.3282,7.6626 11.04584,12.0056 18.88732,10.85664c0.39044,-0.05676 0.95804,0.11868 1.29344,0.40076c0.41452,12.2464 6.36056,23.07724 15.28048,29.26408c14.31212,9.92784 32.72644,6.86968 44.34332,-6.74412c4.97768,5.0912 10.90136,7.56456 17.86048,6.66672c6.91956,-0.89268 12.29284,-4.71108 16.21272,-10.92028c1.81116,0.48676 3.52772,1.18852 5.30276,1.38288c6.95224,0.76024 12.59728,-2.0038 16.73904,-8.256c1.58584,-2.39252 3.08568,-5.49368 3.08396,-10.92888c0.00172,-5.60032 -2.22224,-10.70528 -5.96668,-14.12636z" fill="#c7ede6"></path><path d="M120.37936,88.9584c0,0 20.10852,0 20.23064,0c4.644,0 8.40736,-3.76508 8.40736,-8.40908c0,-4.0506 -2.86552,-7.43212 -6.68048,-8.22848c0.04472,-0.35432 0.07396,-0.7138 0.07396,-1.08016c0,-4.80912 -3.89924,-8.70836 -8.70836,-8.70836c-2.83972,0 -5.35436,1.36568 -6.94364,3.46924c-0.40592,-5.35436 -5.18924,-9.48408 -10.7844,-8.79952c-4.09188,0.50052 -7.47512,3.6636 -8.22848,7.71592c-0.2408,1.30032 -0.21672,2.56108 0.02408,3.74444c-1.09736,-1.18164 -2.65912,-1.92468 -4.39804,-1.92468c-3.182,0 -5.78092,2.47852 -5.9856,5.60892c-1.4448,-0.31992 -3.01688,-0.29928 -4.67324,0.32336c-3.1648,1.18852 -5.418,4.16756 -5.55044,7.54564c-0.18748,4.79708 3.6464,8.7462 8.4022,8.7462c0.3612,0 1.63056,0 1.92296,0h17.45972" fill="#fdfcef"></path><path d="M140.61,89.8184h-20.23064c-0.47472,0 -0.86,-0.38528 -0.86,-0.86c0,-0.47472 0.38528,-0.86 0.86,-0.86h20.23064c4.1624,0 7.54908,-3.38668 7.54908,-7.54908c0,-3.55524 -2.52152,-6.66156 -5.99592,-7.3874c-0.43688,-0.09116 -0.73272,-0.50224 -0.67768,-0.94772c0.03784,-0.31992 0.06708,-0.64328 0.06708,-0.97352c0,-4.32924 -3.52084,-7.84836 -7.84664,-7.84836c-2.47508,0 -4.75752,1.14036 -6.25908,3.12696c-0.215,0.2838 -0.58824,0.40764 -0.92708,0.30616c-0.344,-0.10148 -0.58824,-0.40248 -0.61576,-0.75852c-0.17888,-2.36844 -1.33816,-4.59412 -3.182,-6.10428c-1.86276,-1.52736 -4.22432,-2.2016 -6.6392,-1.90748c-3.72552,0.45752 -6.80432,3.34196 -7.48888,7.01932c-0.21328,1.14724 -0.2064,2.2962 0.02236,3.41592c0.07568,0.3784 -0.10664,0.76024 -0.45064,0.9374c-0.33712,0.17716 -0.76024,0.1032 -1.0234,-0.1806c-0.98728,-1.06296 -2.32544,-1.64948 -3.7668,-1.64948c-2.69696,0 -4.95016,2.11044 -5.1256,4.80396c-0.0172,0.25112 -0.14104,0.4816 -0.34228,0.63124c-0.19952,0.15136 -0.46096,0.20468 -0.70004,0.15308c-1.44996,-0.31992 -2.81908,-0.22532 -4.18648,0.28724c-2.87068,1.08016 -4.87792,3.8012 -4.99144,6.77336c-0.08256,2.07604 0.66392,4.04372 2.10012,5.53668c1.4362,1.49296 3.36776,2.31684 5.44036,2.31684h19.3844c0.47472,0 0.86,0.38528 0.86,0.86c0,0.47472 -0.38528,0.86 -0.86,0.86h-19.3844c-2.54388,0 -4.91576,-1.00964 -6.68048,-2.84316c-1.76472,-1.83352 -2.67976,-4.2484 -2.58,-6.79572c0.14276,-3.655 2.5972,-6.99696 6.10772,-8.3162c1.37772,-0.51772 2.80016,-0.688 4.24496,-0.51428c0.64844,-3.13384 3.43312,-5.47304 6.71488,-5.47304c1.1782,0 2.32888,0.3096 3.34368,0.8772c-0.00172,-0.66392 0.0602,-1.32956 0.18404,-1.9952c0.81872,-4.40664 4.5064,-7.86384 8.9698,-8.4108c2.87928,-0.35088 5.7104,0.45752 7.9378,2.28416c1.72688,1.41556 2.95152,3.354 3.50536,5.49024c1.74064,-1.5738 3.98868,-2.451 6.38808,-2.451c5.27524,0 9.56664,4.29312 9.56664,9.56836c0,0.14276 -0.00344,0.28552 -0.01204,0.42656c3.87688,1.15756 6.61856,4.77472 6.61856,8.88208c-0.00172,5.11184 -4.15896,9.26908 -9.26908,9.26908z" fill="#472b29"></path><path d="M115.5066,70.43572c-3.10976,-0.20468 -5.7878,1.9436 -5.97872,4.79708c-0.02408,0.35432 -0.0086,0.70348 0.043,1.04232c-0.60028,-0.67768 -1.4878,-1.13692 -2.50776,-1.204c-1.8662,-0.12212 -3.47784,1.1094 -3.71176,2.7864c-0.33884,-0.09288 -0.69316,-0.1548 -1.05952,-0.17888c-2.72104,-0.17888 -5.06368,1.70108 -5.23224,4.19852" fill="#fdfcef"></path><path d="M97.0596,82.30716c-0.01032,0 -0.01892,0 -0.02924,-0.00172c-0.23736,-0.01548 -0.41624,-0.22016 -0.39904,-0.45752c0.18232,-2.72792 2.70212,-4.77988 5.68976,-4.59928c0.23392,0.01548 0.46784,0.04472 0.70176,0.09116c0.46956,-1.66496 2.1586,-2.82768 4.0678,-2.69524c0.731,0.04644 1.41556,0.27348 2.00036,0.65532c0.00172,-0.03096 0.00344,-0.06192 0.00688,-0.0946c0.2064,-3.08568 3.1046,-5.42832 6.43624,-5.19612c0.23736,0.01548 0.41624,0.22016 0.39904,0.45752c-0.01376,0.22704 -0.20296,0.40076 -0.42828,0.40076c-0.0086,0 -0.01892,0 -0.02924,-0.00172c-2.87584,-0.19436 -5.34748,1.78364 -5.52292,4.39804c-0.02064,0.31304 -0.00688,0.63296 0.03956,0.95116c0.02924,0.1892 -0.07052,0.37324 -0.24424,0.45408c-0.17544,0.0774 -0.3784,0.03612 -0.50396,-0.10492c-0.54524,-0.6192 -1.35192,-1.0062 -2.21192,-1.06124c-1.62884,-0.06708 -3.05472,0.95632 -3.25768,2.41488c-0.01892,0.12212 -0.08772,0.2322 -0.1892,0.301c-0.10148,0.0688 -0.23392,0.08772 -0.34916,0.05504c-0.32164,-0.08772 -0.65016,-0.14276 -0.97696,-0.16684c-2.48712,-0.15136 -4.62164,1.54284 -4.773,3.79948c-0.01204,0.22704 -0.20124,0.40076 -0.42656,0.40076z" fill="#472b29"></path><path d="M144.01388,73.3064c-2.92228,-1.37772 -6.30208,-0.40248 -7.54908,2.17924c-0.1548,0.31992 -0.27004,0.65188 -0.34572,0.98728" fill="#fdfcef"></path><path d="M136.11908,76.90292c-0.03268,0 -0.06364,-0.00344 -0.09632,-0.01204c-0.2322,-0.0516 -0.37668,-0.2838 -0.32336,-0.51428c0.08428,-0.37152 0.21156,-0.73444 0.37668,-1.07672c1.34676,-2.78984 4.99316,-3.85968 8.12012,-2.38392c0.215,0.1032 0.30788,0.35776 0.2064,0.57276c-0.1032,0.21672 -0.3612,0.30444 -0.57276,0.2064c-2.70556,-1.27796 -5.83768,-0.38872 -6.97804,1.97628c-0.1376,0.28552 -0.24424,0.58824 -0.31648,0.89612c-0.043,0.19952 -0.21844,0.3354 -0.41624,0.3354z" fill="#472b29"></path><path d="M31.62908,81.84964h-17.2516c-0.47472,0 -0.86,-0.38528 -0.86,-0.86c0,-0.47472 0.38528,-0.86 0.86,-0.86h17.2516c0.47472,0 0.86,0.38528 0.86,0.86c0,0.47472 -0.38356,0.86 -0.86,0.86zM36.5844,81.84964h-2.4854c-0.47472,0 -0.86,-0.38528 -0.86,-0.86c0,-0.47472 0.38528,-0.86 0.86,-0.86h2.4854c0.47472,0 0.86,0.38528 0.86,0.86c0,0.47472 -0.38356,0.86 -0.86,0.86zM43.559,81.84964h-4.37912c-0.47472,0 -0.86,-0.38528 -0.86,-0.86c0,-0.47472 0.38528,-0.86 0.86,-0.86h4.37912c0.47472,0 0.86,0.38528 0.86,0.86c0,0.47472 -0.38528,0.86 -0.86,0.86zM43.559,85.05744h-16.53952c-0.47472,0 -0.86,-0.38528 -0.86,-0.86c0,-0.47472 0.38528,-0.86 0.86,-0.86h16.53952c0.47472,0 0.86,0.38528 0.86,0.86c0,0.47472 -0.38528,0.86 -0.86,0.86zM24.04044,85.05744h-0.9976c-0.47472,0 -0.86,-0.38528 -0.86,-0.86c0,-0.47472 0.38528,-0.86 0.86,-0.86h0.9976c0.47472,0 0.86,0.38528 0.86,0.86c0,0.47472 -0.38356,0.86 -0.86,0.86zM19.952,85.05744h-2.50432c-0.47472,0 -0.86,-0.38528 -0.86,-0.86c0,-0.47472 0.38528,-0.86 0.86,-0.86h2.50432c0.47472,0 0.86,0.38528 0.86,0.86c0,0.47472 -0.38356,0.86 -0.86,0.86zM35.66592,78.64184h-8.64644c-0.47472,0 -0.86,-0.38528 -0.86,-0.86c0,-0.47472 0.38528,-0.86 0.86,-0.86h8.64644c0.47472,0 0.86,0.38528 0.86,0.86c0,0.47472 -0.38528,0.86 -0.86,0.86zM35.66592,75.43404h-2.16376c-0.47472,0 -0.86,-0.38528 -0.86,-0.86c0,-0.47472 0.38528,-0.86 0.86,-0.86h2.16376c0.47472,0 0.86,0.38528 0.86,0.86c0,0.47472 -0.38528,0.86 -0.86,0.86zM30.04324,88.26352h-3.02548c-0.47472,0 -0.86,-0.38528 -0.86,-0.86c0,-0.47472 0.38528,-0.86 0.86,-0.86h3.02548c0.47472,0 0.86,0.38528 0.86,0.86c0,0.47472 -0.38356,0.86 -0.86,0.86zM123.09524,36.6532h-17.2516c-0.47472,0 -0.86,-0.38528 -0.86,-0.86c0,-0.47472 0.38528,-0.86 0.86,-0.86h17.2516c0.47472,0 0.86,0.38528 0.86,0.86c0,0.47472 -0.38528,0.86 -0.86,0.86zM128.05056,36.6532h-2.4854c-0.47472,0 -0.86,-0.38528 -0.86,-0.86c0,-0.47472 0.38528,-0.86 0.86,-0.86h2.4854c0.47472,0 0.86,0.38528 0.86,0.86c0,0.47472 -0.38528,0.86 -0.86,0.86zM135.02516,36.6532h-4.37912c-0.47472,0 -0.86,-0.38528 -0.86,-0.86c0,-0.47472 0.38528,-0.86 0.86,-0.86h4.37912c0.47472,0 0.86,0.38528 0.86,0.86c0,0.47472 -0.38528,0.86 -0.86,0.86zM131.54044,30.2376h-16.53952c-0.47472,0 -0.86,-0.38528 -0.86,-0.86c0,-0.47472 0.38528,-0.86 0.86,-0.86h16.53952c0.47472,0 0.86,0.38528 0.86,0.86c0,0.47472 -0.38356,0.86 -0.86,0.86zM112.02188,30.2376h-0.9976c-0.47472,0 -0.86,-0.38528 -0.86,-0.86c0,-0.47472 0.38528,-0.86 0.86,-0.86h0.9976c0.47472,0 0.86,0.38528 0.86,0.86c0,0.47472 -0.38528,0.86 -0.86,0.86zM107.93516,30.2376h-2.50604c-0.47472,0 -0.86,-0.38528 -0.86,-0.86c0,-0.47472 0.38528,-0.86 0.86,-0.86h2.50604c0.47472,0 0.86,0.38528 0.86,0.86c0,0.47472 -0.38528,0.86 -0.86,0.86zM127.13208,33.4454h-8.64644c-0.47472,0 -0.86,-0.38528 -0.86,-0.86c0,-0.47472 0.38528,-0.86 0.86,-0.86h8.64644c0.47472,0 0.86,0.38528 0.86,0.86c0,0.47472 -0.38528,0.86 -0.86,0.86z" fill="#ffffff"></path><path d="M127.13208,30.2376h-2.16204c-0.47472,0 -0.86,-0.38528 -0.86,-0.86c0,-0.47472 0.38528,-0.86 0.86,-0.86h2.16204c0.47472,0 0.86,0.38528 0.86,0.86c0,0.47472 -0.38528,0.86 -0.86,0.86zM115.98132,33.4454h-3.02548c-0.47472,0 -0.86,-0.38528 -0.86,-0.86c0,-0.47472 0.38528,-0.86 0.86,-0.86h3.02548c0.47472,0 0.86,0.38528 0.86,0.86c0,0.47472 -0.38356,0.86 -0.86,0.86z" fill="#ffffff"></path><path d="M91.9254,123.51148v8.10636l3.2422,-2.70212l3.2422,2.70212v-8.10636z" fill="#f1bc19"></path><path d="M98.4098,132.47784c-0.19608,0 -0.39388,-0.06708 -0.5504,-0.19952l-2.6918,-2.24288l-2.69008,2.24288c-0.25628,0.21328 -0.61404,0.258 -0.91504,0.11868c-0.30272,-0.14276 -0.49536,-0.44548 -0.49536,-0.77916v-8.10636c0,-0.47472 0.38528,-0.86 0.86,-0.86h6.48612c0.47472,0 0.86,0.38528 0.86,0.86v8.10636c0,0.33368 -0.19264,0.6364 -0.49536,0.77916c-0.11868,0.05504 -0.24252,0.08084 -0.36808,0.08084zM95.1676,128.05572c0.19436,0 0.39216,0.06708 0.5504,0.19952l1.8318,1.52736v-5.41112h-4.76612v5.41112l1.83008,-1.52736c0.16168,-0.13244 0.35776,-0.19952 0.55384,-0.19952zM66.56572,118.75224c-0.35604,0 -0.645,-0.28896 -0.645,-0.645v-3.2422c0,-0.35604 0.28896,-0.645 0.645,-0.645c0.35604,0 0.645,0.28896 0.645,0.645v3.2422c0,0.35604 -0.28896,0.645 -0.645,0.645zM66.56572,121.99444c-0.35604,0 -0.645,-0.28896 -0.645,-0.645v-1.08188c0,-0.35604 0.28896,-0.645 0.645,-0.645c0.35604,0 0.645,0.28896 0.645,0.645v1.08188c0,0.35604 -0.28896,0.645 -0.645,0.645z" fill="#472b29"></path><path d="M63.812,57.44456c-1.6254,0 -3.06504,-0.89096 -4.0592,-2.27384v63.33556c0,3.16136 2.5628,5.72416 5.72416,5.72416h41.83384c5.35092,0 9.72832,-4.3774 9.72832,-9.72832v-57.05756z" fill="#78a0cf"></path><path d="M107.3108,125.43272h-41.83556c-3.82012,0 -6.92644,-3.10804 -6.92644,-6.92644v-63.33556c0,-0.52288 0.33712,-0.98556 0.8342,-1.14552c0.50396,-0.16512 1.04232,0.01892 1.34676,0.44376c0.82216,1.14208 1.91608,1.7716 3.08224,1.7716h53.2254c0.66564,0 1.204,0.53836 1.204,1.204v57.05756c0.00172,6.02688 -4.90372,10.9306 -10.9306,10.9306zM60.9568,57.87284v60.63344c0,2.49056 2.02788,4.51844 4.51844,4.51844h41.83556c4.69904,0 8.5226,-3.82356 8.5226,-8.5226v-55.85356h-52.0214c-0.99932,0 -1.97284,-0.27004 -2.8552,-0.77572z" fill="#472b29"></path><path d="M66.56572,122.9714h-1.763c-2.1672,0 -3.92504,-1.75784 -3.92504,-3.92504v-69.57572h5.68804z" fill="#5380ad"></path><path d="M66.56572,113.348c-0.35604,0 -0.645,-0.28896 -0.645,-0.645v-62.69228c0,-0.35604 0.28896,-0.645 0.645,-0.645c0.35604,0 0.645,0.28896 0.645,0.645v62.69228c0,0.35604 -0.28896,0.645 -0.645,0.645z" fill="#472b29"></path><path d="M64.54988,47.22604c-2.88444,0 -5.22364,2.27556 -5.22364,5.1256c0,2.83112 2.33404,5.1256 5.22364,5.1256h52.48924c0,0 -1.74924,-2.69696 -1.74924,-5.21504c0,-2.51808 1.74924,-5.03444 1.74924,-5.03444h-52.48924z" fill="#fdfcef"></path><path d="M117.03912,58.50752h-52.48924c-3.45032,0 -6.25564,-2.7606 -6.25564,-6.1576c0,-3.39528 2.80532,-6.15588 6.25564,-6.15588h52.48924c0.38356,0 0.73616,0.21328 0.91332,0.55212c0.17716,0.33884 0.15308,0.75164 -0.06536,1.0664c-0.01548,0.02236 -1.5652,2.29276 -1.5652,4.4462c0,1.81632 1.1438,3.97836 1.58412,4.65604c0.20468,0.3182 0.22016,0.7224 0.03956,1.05264c-0.18232,0.33368 -0.52976,0.54008 -0.90644,0.54008zM64.54988,48.25632c-2.31168,0 -4.19336,1.83524 -4.19336,4.0936c0,2.25836 1.88168,4.09532 4.19336,4.09532h50.76752c-0.51084,-1.11112 -1.0578,-2.65912 -1.0578,-4.18648c0,-1.48608 0.51944,-2.94292 1.01996,-4.00244zM66.56572,120.91256c-0.35604,0 -0.645,-0.28896 -0.645,-0.645v-5.40424c0,-0.35604 0.28896,-0.645 0.645,-0.645c0.35604,0 0.645,0.28896 0.645,0.645v5.40424c0,0.35776 -0.28896,0.645 -0.645,0.645z" fill="#472b29"></path><path d="M115.39308,50.26872h-47.76612c-0.14276,0 -0.258,-0.11524 -0.258,-0.258c0,-0.14276 0.11524,-0.258 0.258,-0.258h47.76612c0.14276,0 0.258,0.11524 0.258,0.258c0,0.14276 -0.11524,0.258 -0.258,0.258zM115.4636,52.59244h-51.74276c-0.14276,0 -0.258,-0.11524 -0.258,-0.258c0,-0.14276 0.11524,-0.258 0.258,-0.258h51.74276c0.14276,0 0.258,0.11524 0.258,0.258c0,0.14276 -0.11524,0.258 -0.258,0.258z" fill="#472b29"></path><g fill="#472b29"><path d="M115.39308,55.01592h-47.76612c-0.14276,0 -0.258,-0.11524 -0.258,-0.258c0,-0.14276 0.11524,-0.258 0.258,-0.258h47.76612c0.14276,0 0.258,0.11524 0.258,0.258c0,0.14276 -0.11524,0.258 -0.258,0.258z"></path></g><path d="M82.55312,97.74588c0.946,0 1.67184,0.00172 2.39768,0c4.21744,-0.01548 8.4366,0.0602 12.6506,-0.07224c4.128,-0.13072 5.94088,-1.60648 7.28936,-5.52636c0.086,-0.25112 0.17716,-0.50052 0.28724,-0.8084c0.32336,0.09116 0.61404,0.172 0.95632,0.26832c-0.55556,3.47956 -1.10252,6.9144 -1.65636,10.38364c-9.12976,0 -18.23716,0 -27.3738,0c-0.14792,-0.56932 -0.02924,-1.01824 0.3526,-1.47404c4.38084,-5.23052 8.74276,-10.4748 13.10984,-15.71564c0.17028,-0.20468 0.33196,-0.41624 0.53836,-0.67424c-1.17648,-1.47748 -2.3392,-2.93948 -3.50536,-4.40148c-3.39012,-4.24496 -6.79056,-8.48476 -10.16004,-12.7452c-0.26832,-0.34056 -0.344,-0.8342 -0.55384,-1.37256c9.03,0 17.84328,0 26.75288,0c0.27348,2.95668 0.54696,5.93056 0.82732,8.97668c-0.34744,0 -0.66736,0 -0.9804,0c-0.23564,-0.93224 -0.43516,-1.88168 -0.71724,-2.80532c-0.76024,-2.48884 -2.55248,-3.81496 -5.06368,-3.93536c-3.18716,-0.15308 -6.38464,-0.0774 -9.57696,-0.0946c-1.31236,-0.00688 -2.62644,-0.00172 -4.13144,-0.00172c3.87516,4.8676 7.6454,9.60276 11.47584,14.41532c-4.26388,5.13592 -8.52776,10.28216 -12.91892,15.5832z" fill="#5380ad"></path><g><path d="M75.71096,127.05124c3.23876,0 6.04924,0 6.0888,0c3.6292,0 6.57212,-2.87928 6.57212,-6.43108c0,-3.09944 -2.23944,-5.6846 -5.2202,-6.2952c0.0344,-0.27176 0.05848,-0.54524 0.05848,-0.8256c0,-3.67908 -3.04784,-6.66156 -6.80604,-6.66156c-2.2188,0 -4.18476,1.04404 -5.4266,2.65396c-0.3182,-4.09532 -4.05576,-7.25496 -8.428,-6.73036c-3.19748,0.38356 -5.84284,2.80188 -6.43108,5.90132c-0.1892,0.99416 -0.16856,1.95908 0.01892,2.8638c-0.85656,-0.903 -2.07776,-1.47232 -3.43656,-1.47232c-2.48712,0 -4.51844,1.89544 -4.6784,4.28968c-1.13004,-0.24424 -2.35812,-0.22876 -3.65156,0.24596c-2.47336,0.90816 -4.23464,3.18716 -4.33784,5.77232c-0.1462,3.66876 2.85004,6.68908 6.56696,6.68908c0.28208,0 1.27452,0 1.50328,0h13.64648M64.5688,127.05124h0.6192" fill="#fdfcef"></path><path d="M81.79976,127.91124h-6.0888c-0.47472,0 -0.86,-0.38528 -0.86,-0.86c0,-0.47472 0.38528,-0.86 0.86,-0.86h6.0888c3.14932,0 5.7104,-2.49916 5.7104,-5.57108c0,-2.623 -1.90576,-4.91404 -4.5322,-5.45068c-0.44032,-0.09116 -0.73788,-0.50396 -0.68112,-0.94944c0.02924,-0.23736 0.04988,-0.47472 0.04988,-0.72068c0,-3.1992 -2.66772,-5.80156 -5.94604,-5.80156c-1.87824,0 -3.60856,0.84452 -4.7472,2.31856c-0.21844,0.28208 -0.58136,0.3956 -0.92708,0.29928c-0.33884,-0.1032 -0.58308,-0.40248 -0.60888,-0.7568c-0.13588,-1.7544 -0.9718,-3.34368 -2.3564,-4.47888c-1.42416,-1.17132 -3.24048,-1.68388 -5.11184,-1.46716c-2.83112,0.33884 -5.17204,2.48024 -5.68976,5.20644c-0.16168,0.85312 -0.15652,1.70452 0.01548,2.53184c0.07912,0.37668 -0.1032,0.75852 -0.44376,0.9374c-0.33884,0.17716 -0.75336,0.10836 -1.0234,-0.172c-0.73616,-0.77572 -1.73548,-1.204 -2.8122,-1.204c-2.01068,0 -3.6894,1.53424 -3.82012,3.48816c-0.0172,0.25112 -0.14104,0.47988 -0.34056,0.62952c-0.19952,0.15308 -0.4558,0.2064 -0.70004,0.15308c-1.09908,-0.2408 -2.13452,-0.17028 -3.17168,0.21328c-2.17064,0.79636 -3.6894,2.80532 -3.7754,4.99832c-0.0602,1.505 0.48504,2.93776 1.5394,4.0334c1.0922,1.1352 2.5714,1.76128 4.16756,1.76128h15.14976c0.47472,0 0.86,0.38528 0.86,0.86c0,0.47472 -0.38528,0.86 -0.86,0.86h-15.14976c-2.0382,0 -4.0076,-0.8342 -5.40768,-2.28932c-1.38116,-1.43792 -2.09668,-3.31788 -2.01928,-5.29416c0.11696,-2.881 2.08636,-5.51088 4.902,-6.54632c1.0492,-0.38528 2.12592,-0.52804 3.23532,-0.41796c0.5934,-2.40112 2.80188,-4.171 5.3922,-4.171c0.84796,0 1.68044,0.19436 2.43208,0.55556c0.01548,-0.41452 0.06192,-0.83076 0.14104,-1.24872c0.65532,-3.4572 3.60684,-6.16792 7.17412,-6.59448c2.3478,-0.28724 4.6182,0.37496 6.40872,1.84212c1.28656,1.05436 2.19816,2.42348 2.66084,3.96116c1.36052,-1.11456 3.0702,-1.73204 4.88824,-1.73204c4.22776,0 7.66604,3.37464 7.66604,7.52156c0,0.05848 -0.00172,0.11696 -0.00344,0.17544c3.0358,0.95288 5.16688,3.76336 5.16688,6.94536c0,4.02308 -3.33508,7.29452 -7.43212,7.29452zM65.188,127.91124h-0.61748c-0.47472,0 -0.86,-0.38528 -0.86,-0.86c0,-0.47472 0.38528,-0.86 0.86,-0.86h0.61748c0.47472,0 0.86,0.38528 0.86,0.86c0,0.47472 -0.38528,0.86 -0.86,0.86z" fill="#472b29"></path><path d="M78.862,117.93008c-0.03096,0 -0.06192,-0.00344 -0.0946,-0.01032c-0.2322,-0.0516 -0.3784,-0.28208 -0.32508,-0.51428c0.06192,-0.28036 0.16168,-0.55728 0.29068,-0.82388c1.04232,-2.10528 3.91472,-2.88616 6.40356,-1.73032c0.215,0.09976 0.3096,0.35432 0.20812,0.57104c-0.09804,0.215 -0.3526,0.30788 -0.57104,0.20812c-2.064,-0.9546 -4.429,-0.36292 -5.26836,1.33128c-0.09976,0.20296 -0.17544,0.41452 -0.22188,0.63124c-0.04644,0.20124 -0.2236,0.33712 -0.4214,0.33712z" fill="#472b29"></path><g fill="#472b29"><path d="M69.99024,127.91124h-1.90404c-0.47472,0 -0.86,-0.38528 -0.86,-0.86c0,-0.47472 0.38528,-0.86 0.86,-0.86h1.90404c0.47472,0 0.86,0.38528 0.86,0.86c0,0.47472 -0.38528,0.86 -0.86,0.86z"></path></g></g><g><path d="M100.45488,74.55684l19.86256,39.65116l3.7668,7.51984l3.08224,6.15244l13.67228,-6.84904l-26.7116,-53.32344zM132.80464,121.2084c-0.75508,0.3784 -1.67356,0.07224 -2.05196,-0.68284c-0.3784,-0.75508 -0.07224,-1.67356 0.68284,-2.05196c0.75508,-0.3784 1.67356,-0.07224 2.05196,0.68284c0.37668,0.75336 0.07224,1.67356 -0.68284,2.05196z" fill="#d8a482"></path><path d="M127.14412,128.95184c-0.11868,0 -0.23908,-0.02064 -0.3526,-0.05676c-0.28208,-0.0946 -0.51428,-0.29584 -0.64672,-0.56072l-3.08224,-6.15244c-0.27692,-0.55212 -0.05332,-1.22292 0.4988,-1.49984c0.55556,-0.27864 1.22292,-0.05332 1.49984,0.4988l2.58172,5.15312l11.67364,-5.848l-25.71228,-51.32308l-11.67364,5.848l19.36376,38.65012c0.27692,0.55212 0.05332,1.22292 -0.4988,1.49984c-0.55384,0.27692 -1.22292,0.05332 -1.49984,-0.4988l-19.86428,-39.64944c-0.13244,-0.26488 -0.1548,-0.57104 -0.06192,-0.85312c0.0946,-0.28036 0.29584,-0.51428 0.56072,-0.64672l13.67228,-6.84904c0.26316,-0.13416 0.57104,-0.1548 0.85312,-0.06192c0.28208,0.0946 0.51428,0.29584 0.64672,0.56072l26.7116,53.32172c0.27692,0.55212 0.05332,1.22292 -0.4988,1.49984l-13.67228,6.84904c-0.1548,0.07912 -0.3268,0.11868 -0.4988,0.11868z" fill="#472b29"></path><path d="M117.60156,83.78808c-0.22016,0 -0.43344,-0.1204 -0.53664,-0.33196c-0.14964,-0.29584 -0.02924,-0.65876 0.26832,-0.80668l3.04612,-1.52564c0.2924,-0.15136 0.65876,-0.03096 0.80668,0.26832c0.14964,0.29584 0.02924,0.65876 -0.26832,0.80668l-3.04612,1.52564c-0.08772,0.043 -0.1806,0.06364 -0.27004,0.06364zM121.27376,91.11872c-0.22016,0 -0.43344,-0.1204 -0.53664,-0.33196c-0.14964,-0.29584 -0.02924,-0.65876 0.26832,-0.80668l3.04612,-1.52564c0.29412,-0.15136 0.65876,-0.03096 0.80668,0.26832c0.14964,0.29584 0.02924,0.65876 -0.26832,0.80668l-3.04612,1.52564c-0.086,0.04472 -0.17888,0.06364 -0.27004,0.06364zM124.94768,98.4528c-0.22016,0 -0.43344,-0.1204 -0.53664,-0.33196c-0.14964,-0.29584 -0.02924,-0.65876 0.26832,-0.80668l3.04612,-1.52564c0.29068,-0.15136 0.65876,-0.03096 0.80668,0.26832c0.14964,0.29584 0.02924,0.65876 -0.26832,0.80668l-3.04784,1.52564c-0.08428,0.043 -0.17716,0.06364 -0.26832,0.06364zM128.61988,105.78516c-0.22016,0 -0.43344,-0.1204 -0.53664,-0.33196c-0.14964,-0.29584 -0.02924,-0.65876 0.26832,-0.80668l3.04612,-1.52564c0.29412,-0.15136 0.65876,-0.03096 0.80668,0.26832c0.14964,0.29584 0.02924,0.65876 -0.26832,0.80668l-3.04612,1.52564c-0.08772,0.043 -0.17888,0.06364 -0.27004,0.06364zM132.2938,113.1158c-0.22016,0 -0.43344,-0.1204 -0.53664,-0.33196c-0.14964,-0.29584 -0.02924,-0.65876 0.26832,-0.80668l3.04612,-1.52564c0.29068,-0.15136 0.65876,-0.03096 0.80668,0.26832c0.14964,0.29584 0.02924,0.65876 -0.26832,0.80668l-3.04612,1.52564c-0.08772,0.04472 -0.1806,0.06364 -0.27004,0.06364zM113.92764,76.45572c-0.22016,0 -0.43344,-0.1204 -0.53664,-0.33024c-0.14964,-0.29756 -0.03096,-0.66048 0.2666,-0.8084l3.04612,-1.52736c0.29928,-0.15136 0.66048,-0.03096 0.8084,0.2666c0.14964,0.29756 0.03096,0.66048 -0.2666,0.8084l-3.04612,1.52736c-0.08944,0.043 -0.1806,0.06364 -0.27176,0.06364zM132.1132,121.92392c-0.22532,0 -0.45064,-0.03612 -0.66908,-0.10836c-0.53492,-0.17888 -0.96664,-0.55212 -1.2212,-1.0578c-0.25112,-0.50224 -0.2924,-1.075 -0.11352,-1.60992c0.17888,-0.53492 0.55212,-0.96664 1.0578,-1.2212c1.03888,-0.51944 2.30824,-0.09804 2.8294,0.94084c0,0.00172 0.00172,0.00172 0.00172,0.00172c0.51944,1.03888 0.09804,2.30996 -0.94084,2.83112c-0.29928,0.14792 -0.62092,0.2236 -0.94428,0.2236zM132.11148,118.90704c-0.13932,0 -0.27692,0.03268 -0.4042,0.09632c-0.21844,0.10836 -0.38012,0.29584 -0.4558,0.5246c-0.0774,0.23048 -0.05848,0.47472 0.04816,0.68972c0.10836,0.21844 0.29584,0.38012 0.5246,0.4558c0.2322,0.07912 0.47644,0.0602 0.69316,-0.04988c0.44548,-0.22188 0.62608,-0.76712 0.40248,-1.21604c-0.10836,-0.215 -0.29584,-0.37668 -0.5246,-0.45236c-0.09116,-0.03268 -0.18748,-0.04816 -0.2838,-0.04816z" fill="#472b29"></path></g><g><path d="M92.87484,88.3478v0c-2.87412,2.46132 -4.04028,5.86176 -2.59032,7.55424l28.28024,33.02744c1.30892,1.52908 11.72524,6.02 14.1126,7.32376c0.2408,0.13072 0.5332,0.09804 0.74304,-0.08084l0.35776,-0.30616c0.2752,-0.23564 0.3784,-0.61404 0.25456,-0.95632c-1.032,-2.86724 -3.72552,-13.42804 -5.0138,-14.93304l-28.28196,-33.02744c-1.44996,-1.69248 -4.988,-1.06468 -7.86212,1.39836z" fill="#fdfcee"></path><path d="M105.10576,92.05096l-4.99832,-5.83768c-1.44996,-1.6942 -4.988,-1.06468 -7.86384,1.39664v0c-2.87412,2.46132 -4.04028,5.86176 -2.59032,7.55424l4.75752,5.5556c3.54664,-2.9068 7.16552,-5.73792 10.69496,-8.6688z" fill="#f48e8f"></path><path d="M127.85104,133.90716c2.11388,0.99416 3.95428,1.85416 4.816,2.32544c0.25972,0.14104 0.57448,0.10492 0.79808,-0.086l0.38528,-0.33024c0.29928,-0.25628 0.4042,-0.66908 0.27176,-1.0406c-0.35776,-0.99588 -0.89956,-2.84144 -1.51532,-4.94156z" fill="#605e60"></path><path d="M96.10353,102.69684l10.45472,-8.9516l22.87569,26.71688l-10.45472,8.9516z" fill="#fbb821"></path><path d="M92.12397,98.0497l10.45472,-8.9516l3.97799,4.64596l-10.45472,8.9516z" fill="#beace5"></path><path d="M132.4916,136.61272c-0.24768,0 -0.49536,-0.0602 -0.72412,-0.18576c-0.71208,-0.38872 -2.20848,-1.0922 -3.94052,-1.90404c-5.31824,-2.50088 -9.46172,-4.50296 -10.4146,-5.61408l-28.28024,-33.02916c-0.90644,-1.05952 -1.08016,-2.5972 -0.48504,-4.32752c0.53836,-1.5738 1.66668,-3.15104 3.17168,-4.43932v0c1.505,-1.28828 3.23532,-2.16032 4.87448,-2.451c1.80084,-0.3182 3.29208,0.086 4.20024,1.14724l28.28024,33.02916c0.9202,1.075 2.14312,5.08432 3.77024,10.63304c0.5762,1.96768 1.075,3.66532 1.39836,4.56488c0.24424,0.68284 0.04472,1.42932 -0.50396,1.9006l-0.35948,0.30788c-0.28552,0.24424 -0.63468,0.36808 -0.98728,0.36808zM132.59136,134.91852h0.0172zM97.82844,86.27864c-0.26144,0 -0.54008,0.0258 -0.8342,0.0774c-1.32268,0.23564 -2.80016,0.98728 -4.05576,2.064v0c-1.25732,1.07672 -2.22912,2.42004 -2.66428,3.69112c-0.38184,1.11456 -0.32164,2.0812 0.16684,2.65052l28.28024,33.02916c0.78604,0.91676 6.45344,3.58276 9.84012,5.17548c1.66496,0.7826 3.11492,1.46544 3.90612,1.88512l0.25284,-0.21672c-0.3354,-0.9632 -0.84108,-2.68492 -1.42588,-4.6784c-0.99932,-3.40904 -2.6746,-9.11944 -3.42624,-9.99664l-28.28196,-33.03088c-0.36464,-0.42656 -0.98384,-0.65016 -1.75784,-0.65016zM92.37776,87.76644h0.0172z" fill="#472b29"></path><path d="M95.85216,103.00564c-0.17028,0 -0.33712,-0.07052 -0.45752,-0.20984c-0.21672,-0.25112 -0.18576,-0.63296 0.06536,-0.84796l10.45416,-8.95088c0.25112,-0.215 0.63124,-0.18748 0.84796,0.06536c0.21672,0.25112 0.18576,0.63296 -0.06536,0.84796l-10.45416,8.95088c-0.1118,0.09804 -0.25112,0.14448 -0.39044,0.14448z" fill="#472b29"></path><path d="M92.16448,97.51024l7.55424,-6.4586" fill="#fdfcef"></path><path d="M92.16448,97.94024c-0.1204,0 -0.24252,-0.04988 -0.3268,-0.15136c-0.15308,-0.17888 -0.13244,-0.45236 0.04816,-0.60716l7.55596,-6.46032c0.1806,-0.15136 0.45236,-0.13416 0.60716,0.04816c0.15308,0.17888 0.13244,0.45236 -0.04816,0.60716l-7.55596,6.46032c-0.08256,0.07052 -0.18232,0.1032 -0.28036,0.1032z" fill="#472b29"></path><path d="M93.65572,99.2526l10.04136,-8.59656" fill="#fdfcef"></path><path d="M93.65744,99.68432c-0.1204,0 -0.24252,-0.04988 -0.32508,-0.14964c-0.1548,-0.1806 -0.13416,-0.45236 0.04472,-0.60716l10.03964,-8.59828c0.18404,-0.1548 0.45408,-0.13244 0.60716,0.04472c0.1548,0.1806 0.13416,0.45236 -0.04472,0.60716l-10.03964,8.59828c-0.08428,0.07052 -0.18404,0.10492 -0.28208,0.10492z" fill="#472b29"></path><path d="M118.97756,129.4128l10.45416,-8.95088" fill="#fdfcef"></path><path d="M118.97756,129.8428c-0.1204,0 -0.24252,-0.04988 -0.32508,-0.15136c-0.1548,-0.17888 -0.13416,-0.45236 0.04644,-0.60544l10.45416,-8.95088c0.17888,-0.1548 0.45236,-0.13588 0.60544,0.04644c0.1548,0.17888 0.13416,0.45236 -0.04644,0.60544l-10.45416,8.95088c-0.08256,0.07052 -0.18232,0.10492 -0.28036,0.10492z" fill="#472b29"></path><path d="M127.8906,133.35676l4.06608,-3.48128" fill="#fdfcef"></path><path d="M127.8906,133.78676c-0.1204,0 -0.24252,-0.04988 -0.32508,-0.15136c-0.1548,-0.17888 -0.13416,-0.45236 0.04472,-0.60544l4.06608,-3.47956c0.17888,-0.1548 0.45236,-0.13416 0.60544,0.04644c0.1548,0.17888 0.13416,0.45236 -0.04472,0.60544l-4.06608,3.47956c-0.08256,0.07052 -0.1806,0.10492 -0.28036,0.10492z" fill="#472b29"></path><g><path d="M97.8852,100.66472l21.88184,25.55576" fill="#fdfcef"></path><path d="M119.76704,126.64876c-0.1204,0 -0.24252,-0.04988 -0.32508,-0.14964l-21.88356,-25.55404c-0.1548,-0.1806 -0.13416,-0.45408 0.04472,-0.60716c0.18232,-0.15652 0.4558,-0.13416 0.60716,0.04472l21.88184,25.55576c0.1548,0.1806 0.13416,0.45408 -0.04472,0.60716c-0.08256,0.07052 -0.18232,0.1032 -0.28036,0.1032z" fill="#472b29"></path></g><g><path d="M104.275,95.19512l18.89592,22.06932" fill="#fdfcef"></path><path d="M123.17092,117.69444c-0.1204,0 -0.24252,-0.04988 -0.32508,-0.15136l-18.89592,-22.0676c-0.1548,-0.1806 -0.13416,-0.45408 0.04644,-0.60716c0.17888,-0.1548 0.45408,-0.13416 0.60544,0.04472l18.8942,22.07276c0.1548,0.17888 0.13416,0.45236 -0.04644,0.60544c-0.08084,0.07052 -0.17888,0.1032 -0.27864,0.1032z" fill="#472b29"></path></g><g><path d="M105.51512,100.17108l18.89764,22.07104" fill="#fdfcef"></path><path d="M124.41276,122.67212c-0.1204,0 -0.24252,-0.04988 -0.32508,-0.15136l-18.89764,-22.07104c-0.1548,-0.17888 -0.13416,-0.45236 0.04644,-0.60544c0.17888,-0.1548 0.45236,-0.13416 0.60544,0.04644l18.89592,22.07104c0.1548,0.17888 0.13416,0.45236 -0.04644,0.60544c-0.08084,0.07052 -0.1806,0.10492 -0.27864,0.10492z" fill="#472b29"></path></g><g><path d="M99.62756,99.17348l21.88184,25.55404" fill="#fdfcef"></path><path d="M121.5094,125.15752c-0.1204,0 -0.24252,-0.04988 -0.32508,-0.14964l-21.88184,-25.55404c-0.1548,-0.1806 -0.13416,-0.45408 0.04472,-0.60716c0.18232,-0.1548 0.45408,-0.13416 0.60716,0.04472l21.88184,25.55404c0.1548,0.1806 0.13416,0.45408 -0.04472,0.60716c-0.08428,0.07224 -0.18232,0.10492 -0.28208,0.10492z" fill="#472b29"></path></g><g><path d="M124.1668,118.42716l0.99416,1.161" fill="#fdfcef"></path><path d="M125.16096,120.01816c-0.1204,0 -0.24252,-0.04988 -0.3268,-0.15136l-0.99416,-1.16272c-0.15308,-0.17888 -0.13244,-0.45236 0.04816,-0.60716c0.17888,-0.15308 0.45064,-0.13416 0.60716,0.04816l0.99416,1.16272c0.15308,0.17888 0.13244,0.45236 -0.04816,0.60716c-0.08256,0.0688 -0.1806,0.1032 -0.28036,0.1032z" fill="#472b29"></path></g><g><path d="M104.52096,99.01008l-1.98832,-2.32372" fill="#fdfcef"></path><path d="M104.52096,99.44008c-0.1204,0 -0.24252,-0.04988 -0.32508,-0.15136l-1.98832,-2.32372c-0.1548,-0.17888 -0.13416,-0.45236 0.04644,-0.60544c0.17888,-0.15652 0.45408,-0.13588 0.60544,0.04644l1.98832,2.32372c0.1548,0.17888 0.13416,0.45236 -0.04644,0.60544c-0.08256,0.07224 -0.1806,0.10492 -0.28036,0.10492z" fill="#472b29"></path></g><g><path d="M100.87628,90.0506l1.32956,-1.13692" fill="#fdfcef"></path><path d="M100.87628,90.4806c-0.1204,0 -0.24252,-0.04988 -0.32508,-0.15136c-0.1548,-0.17888 -0.13416,-0.45236 0.04644,-0.60544l1.32784,-1.13692c0.1806,-0.1548 0.45236,-0.13588 0.60544,0.04644c0.1548,0.17888 0.13416,0.45236 -0.04644,0.60544l-1.32784,1.13692c-0.08256,0.07224 -0.1806,0.10492 -0.28036,0.10492z" fill="#472b29"></path></g><path d="M97.7304,100.59248c-0.02064,0 -0.03956,-0.00344 -0.06192,-0.0086l-3.4658,-1.03716c-0.1118,-0.03612 -0.17888,-0.1548 -0.14448,-0.26832c0.03612,-0.1118 0.1462,-0.17028 0.26832,-0.14448l3.4658,1.03716c0.1118,0.03612 0.17888,0.1548 0.14448,0.26832c-0.02924,0.09288 -0.11352,0.15308 -0.2064,0.15308zM99.09092,99.35408c-0.02064,0 -0.03956,-0.00344 -0.06192,-0.0086l-3.4658,-1.03716c-0.1118,-0.03612 -0.17888,-0.1548 -0.14448,-0.26832c0.03612,-0.1118 0.1462,-0.17028 0.26832,-0.14448l3.4658,1.03716c0.1118,0.03612 0.17888,0.1548 0.14448,0.26832c-0.02752,0.09288 -0.11352,0.15308 -0.2064,0.15308zM100.64236,98.17244c-0.02064,0 -0.03956,-0.00344 -0.06192,-0.0086l-3.84764,-1.15068c-0.1118,-0.03612 -0.17888,-0.1548 -0.14448,-0.26832c0.03612,-0.1118 0.14964,-0.172 0.26832,-0.14448l3.84764,1.15068c0.1118,0.03612 0.17888,0.1548 0.14448,0.26832c-0.02752,0.09288 -0.11352,0.15308 -0.2064,0.15308zM102.02524,96.9392c-0.02064,0 -0.03956,-0.00344 -0.06192,-0.0086l-3.89064,-1.16444c-0.1118,-0.03612 -0.17888,-0.1548 -0.14448,-0.26832c0.03612,-0.1118 0.14964,-0.17372 0.26832,-0.14448l3.89064,1.16444c0.1118,0.03612 0.17888,0.1548 0.14448,0.26832c-0.02752,0.09288 -0.11352,0.15308 -0.2064,0.15308zM103.38576,95.69908c-0.02064,0 -0.03956,-0.00344 -0.06192,-0.0086l-3.88892,-1.16444c-0.1118,-0.03612 -0.17888,-0.1548 -0.14448,-0.26832c0.03612,-0.1118 0.14792,-0.172 0.26832,-0.14448l3.88892,1.16444c0.1118,0.03612 0.17888,0.1548 0.14448,0.26832c-0.02752,0.09288 -0.11352,0.15308 -0.2064,0.15308zM104.74628,94.46068c-0.02064,0 -0.03956,-0.00344 -0.06192,-0.0086l-3.88892,-1.16272c-0.1118,-0.03612 -0.17888,-0.1548 -0.14448,-0.26832c0.03612,-0.1118 0.1462,-0.172 0.26832,-0.14448l3.88892,1.16272c0.1118,0.03612 0.17888,0.1548 0.14448,0.26832c-0.02752,0.09116 -0.11352,0.15308 -0.2064,0.15308zM106.10852,93.22056c-0.02064,0 -0.03956,-0.00344 -0.06192,-0.0086l-3.89064,-1.16272c-0.1118,-0.03612 -0.17888,-0.1548 -0.14448,-0.26832c0.03612,-0.1118 0.1462,-0.17372 0.26832,-0.14448l3.89064,1.16272c0.1118,0.03612 0.17888,0.1548 0.14448,0.26832c-0.02752,0.09288 -0.11352,0.15308 -0.2064,0.15308z" fill="#472b29"></path></g></g></g></svg>