<svg xmlns="http://www.w3.org/2000/svg" x="0px" y="0px"
width="30" height="30"
viewBox="0 0 172 172"
style=" fill:#000000;"><g fill="none" fill-rule="nonzero" stroke="none" stroke-width="1" stroke-linecap="butt" stroke-linejoin="miter" stroke-miterlimit="10" stroke-dasharray="" stroke-dashoffset="0" font-family="none" font-weight="none" font-size="none" text-anchor="none" style="mix-blend-mode: normal"><path d="M0,172v-172h172v172z" fill="none"></path><g fill="#9b59b6"><path d="M21.5,21.5c-7.83362,0 -14.33333,6.49972 -14.33333,14.33333v93.16667h14.33333v-93.16667h114.66667v-14.33333zM50.16667,50.16667c-7.83362,0 -14.33333,6.49972 -14.33333,14.33333v71.66667c0,7.83362 6.49972,14.33333 14.33333,14.33333h50.16667v-14.33333h-50.16667v-52.84017l50.16667,31.34017l50.16667,-31.34017v17.00684h14.33333v-35.83333c0,-7.83362 -6.49972,-14.33333 -14.33333,-14.33333zM50.16667,64.5h100.33333v4.49316l-50.16667,31.34017l-50.16667,-31.34017zM136.16667,114.66667v21.5h-21.5v14.33333h21.5v21.5h14.33333v-21.5h21.5v-14.33333h-21.5v-21.5z"></path></g></g></svg>