<?xml version="1.0" encoding="UTF-8"?>
<svg xmlns="http://www.w3.org/2000/svg" xmlns:xlink="http://www.w3.org/1999/xlink" width="40pt" height="40pt" viewBox="0 0 50 50" version="1.1">
<g id="surface1">
<path style=" stroke:none;fill-rule:nonzero;fill:rgb(98.823529%,94.509804%,80.784314%);fill-opacity:1;" d="M 47.59375 21.472656 L 49.828125 20.128906 C 50.058594 19.992188 50.058594 19.660156 49.828125 19.523438 L 47.59375 18.183594 C 46.488281 17.519531 46.195312 16.046875 46.960938 15.011719 L 48.515625 12.914062 C 48.671875 12.699219 48.546875 12.394531 48.28125 12.355469 L 45.703125 11.972656 C 44.425781 11.78125 43.59375 10.53125 43.90625 9.28125 L 44.539062 6.753906 C 44.601562 6.492188 44.367188 6.257812 44.109375 6.324219 L 41.578125 6.957031 C 40.328125 7.269531 39.082031 6.433594 38.890625 5.160156 L 38.507812 2.582031 C 38.46875 2.316406 38.160156 2.1875 37.945312 2.347656 L 35.851562 3.898438 C 34.816406 4.667969 33.34375 4.375 32.679688 3.269531 L 31.335938 1.035156 C 31.199219 0.804688 30.867188 0.804688 30.730469 1.035156 L 29.390625 3.269531 C 28.726562 4.375 27.253906 4.667969 26.21875 3.902344 L 24.121094 2.347656 C 23.90625 2.1875 23.601562 2.316406 23.5625 2.582031 L 23.179688 5.160156 C 22.988281 6.433594 21.742188 7.269531 20.488281 6.957031 L 17.960938 6.324219 C 17.699219 6.257812 17.464844 6.492188 17.53125 6.753906 L 18.164062 9.28125 C 18.476562 10.535156 17.640625 11.78125 16.367188 11.972656 L 13.785156 12.355469 C 13.523438 12.394531 13.394531 12.703125 13.554688 12.914062 L 15.105469 15.011719 C 15.875 16.046875 15.582031 17.519531 14.476562 18.183594 L 12.242188 19.523438 C 12.011719 19.660156 12.011719 19.992188 12.242188 20.132812 L 14.476562 21.472656 C 15.582031 22.136719 15.875 23.609375 15.105469 24.644531 L 13.554688 26.738281 C 13.394531 26.953125 13.523438 27.261719 13.785156 27.300781 L 16.367188 27.683594 C 17.640625 27.875 18.476562 29.121094 18.164062 30.375 L 17.53125 32.902344 C 17.464844 33.160156 17.699219 33.394531 17.960938 33.332031 L 20.488281 32.699219 C 21.738281 32.386719 22.988281 33.21875 23.179688 34.496094 L 23.5625 37.074219 C 23.601562 37.339844 23.90625 37.464844 24.121094 37.308594 L 26.21875 35.753906 C 27.253906 34.988281 28.726562 35.28125 29.390625 36.386719 L 30.730469 38.621094 C 30.867188 38.851562 31.199219 38.851562 31.335938 38.621094 L 32.679688 36.386719 C 33.34375 35.28125 34.816406 34.988281 35.851562 35.753906 L 37.945312 37.308594 C 38.160156 37.464844 38.46875 37.339844 38.507812 37.074219 L 38.890625 34.496094 C 39.082031 33.21875 40.328125 32.386719 41.582031 32.699219 L 44.109375 33.332031 C 44.367188 33.394531 44.601562 33.160156 44.539062 32.902344 L 43.90625 30.375 C 43.59375 29.121094 44.425781 27.875 45.703125 27.683594 L 48.28125 27.300781 C 48.546875 27.261719 48.671875 26.953125 48.515625 26.738281 L 46.960938 24.644531 C 46.195312 23.609375 46.488281 22.136719 47.59375 21.472656 Z M 47.59375 21.472656 "/>
<path style=" stroke:none;fill-rule:nonzero;fill:rgb(97.647059%,85.882353%,48.235294%);fill-opacity:1;" d="M 42.914062 19.828125 C 42.914062 26.386719 37.597656 31.703125 31.039062 31.703125 C 24.476562 31.703125 19.160156 26.386719 19.160156 19.828125 C 19.160156 13.269531 24.476562 7.949219 31.039062 7.949219 C 37.597656 7.949219 42.914062 13.269531 42.914062 19.828125 Z M 42.914062 19.828125 "/>
<path style=" stroke:none;fill-rule:nonzero;fill:rgb(95.294118%,95.294118%,95.294118%);fill-opacity:1;" d="M 37.929688 28.449219 C 37.328125 28.449219 36.742188 28.511719 36.167969 28.609375 C 33.808594 24.398438 29.308594 21.550781 24.136719 21.550781 C 18.96875 21.550781 14.46875 24.398438 12.105469 28.609375 C 11.535156 28.511719 10.945312 28.449219 10.34375 28.449219 C 4.632812 28.449219 0 33.078125 0 38.792969 C 0 44.507812 4.632812 49.136719 10.34375 49.136719 L 37.929688 49.136719 C 43.644531 49.136719 48.277344 44.507812 48.277344 38.792969 C 48.277344 33.078125 43.644531 28.449219 37.929688 28.449219 Z M 37.929688 28.449219 "/>
<path style=" stroke:none;fill-rule:nonzero;fill:rgb(88.235294%,88.235294%,88.235294%);fill-opacity:1;" d="M 37.929688 28.449219 C 37.328125 28.449219 36.742188 28.511719 36.167969 28.609375 C 36.15625 28.589844 36.144531 28.574219 36.132812 28.554688 C 37.273438 30.5625 37.929688 32.875 37.929688 35.347656 C 37.929688 42.964844 31.757812 49.136719 24.140625 49.136719 L 37.929688 49.136719 C 43.644531 49.136719 48.277344 44.507812 48.277344 38.792969 C 48.277344 33.078125 43.644531 28.449219 37.929688 28.449219 Z M 37.929688 28.449219 "/>
</g>
</svg>
