<svg xmlns="http://www.w3.org/2000/svg" x="0px" y="0px"
width="30" height="30"
viewBox="0 0 172 172"
style=" fill:#000000;"><g fill="none" fill-rule="nonzero" stroke="none" stroke-width="1" stroke-linecap="butt" stroke-linejoin="miter" stroke-miterlimit="10" stroke-dasharray="" stroke-dashoffset="0" font-family="none" font-weight="none" font-size="none" text-anchor="none" style="mix-blend-mode: normal"><path d="M0,172v-172h172v172z" fill="none"></path><g fill="#9b59b6"><path d="M86,154.8c37.9948,0 68.8,-30.8052 68.8,-68.8c0,-37.9948 -30.8052,-68.8 -68.8,-68.8c-37.9948,0 -68.8,30.8052 -68.8,68.8c0,37.9948 30.8052,68.8 68.8,68.8zM64.74653,64.74653l17.2,-17.2c1.118,-1.118 2.58573,-1.67987 4.05347,-1.67987c1.46773,0 2.93547,0.56187 4.05347,1.67987l17.2,17.2c1.63973,1.63973 2.1328,4.10507 1.24413,6.24933c-0.88867,2.14427 -2.98133,3.53747 -5.2976,3.53747h-11.46667v45.86667c0,3.17053 -2.56853,5.73333 -5.73333,5.73333c-3.1648,0 -5.73333,-2.5628 -5.73333,-5.73333v-45.86667h-11.46667c-2.31627,0 -4.40893,-1.3932 -5.2976,-3.53747c-0.88867,-2.14427 -0.3956,-4.6096 1.24413,-6.24933z"></path></g></g></svg>